<?xml version="1.0" standalone="no"?>
<!DOCTYPE svg PUBLIC "-//W3C//DTD SVG 20010904//EN"
 "http://www.w3.org/TR/2001/REC-SVG-20010904/DTD/svg10.dtd">
<svg version="1.0" xmlns="http://www.w3.org/2000/svg"
 width="515.000000pt" height="485.000000pt" viewBox="0 0 515.000000 485.000000"
 preserveAspectRatio="xMidYMid meet">

<g transform="translate(0.000000,485.000000) scale(0.100000,-0.100000)"
fill="#000000" stroke="none">
<path d="M2580 4709 c0 -6 -9 -9 -20 -6 -11 3 -20 1 -20 -4 0 -5 5 -9 11 -9 8
0 8 -4 1 -12 -7 -9 -5 -19 8 -35 21 -27 30 -29 30 -8 0 17 12 19 26 5 12 -12
12 7 -1 53 -7 26 -35 39 -35 16z"/>
<path d="M2960 4666 c0 -2 8 -10 18 -17 15 -13 16 -12 3 4 -13 16 -21 21 -21
13z"/>
<path d="M3101 4643 c-1 -7 -8 -13 -17 -13 -10 0 -14 -6 -11 -14 3 -8 1 -17
-6 -19 -7 -3 1 -10 18 -17 16 -6 38 -19 49 -28 18 -16 18 -16 7 3 -6 11 -18
38 -25 60 -8 22 -15 34 -15 28z"/>
<path d="M2904 4585 c24 -18 39 -20 34 -2 -3 6 -15 13 -29 15 -23 2 -23 2 -5
-13z"/>
<path d="M3357 4566 c-4 -9 -4 -23 -1 -31 4 -8 1 -15 -6 -15 -9 0 -7 -7 5 -20
10 -11 22 -17 26 -14 14 8 11 58 -4 78 -12 17 -14 17 -20 2z"/>
<path d="M3416 4544 c-9 -23 -7 -74 2 -74 12 0 53 76 45 84 -12 12 -41 6 -47
-10z"/>
<path d="M1436 4541 c-11 -17 3 -68 20 -75 10 -4 14 2 14 22 0 34 -23 71 -34
53z"/>
<path d="M1486 4535 c-3 -9 -6 -22 -5 -28 0 -7 5 -1 10 12 5 13 8 26 5 28 -2
2 -6 -3 -10 -12z"/>
<path d="M1680 4520 c-8 -5 -12 -12 -9 -15 4 -3 12 1 19 10 14 17 11 19 -10 5z"/>
<path d="M3180 4495 c19 -19 36 -35 39 -35 3 0 -10 16 -29 35 -19 19 -36 35
-39 35 -3 0 10 -16 29 -35z"/>
<path d="M2962 4511 c-10 -6 -10 -10 3 -21 12 -10 18 -10 30 0 26 22 -3 41
-33 21z"/>
<path d="M3286 4475 c4 -8 8 -15 10 -15 2 0 4 7 4 15 0 8 -4 15 -10 15 -5 0
-7 -7 -4 -15z"/>
<path d="M1654 4458 c-3 -4 13 -8 35 -8 23 0 41 5 41 10 0 12 -69 10 -76 -2z"/>
<path d="M3224 4450 c-55 -22 -34 -60 30 -57 39 2 41 3 38 30 -2 15 -8 27 -12
27 -5 0 -14 2 -22 4 -7 3 -23 1 -34 -4z"/>
<path d="M3035 4435 c-27 -8 -62 -14 -77 -15 -42 0 -33 -16 19 -34 52 -18 159
-23 133 -6 -12 8 -11 10 8 10 12 0 22 -4 22 -10 0 -5 5 -10 11 -10 6 0 7 5 2
13 -9 14 -12 57 -3 53 3 -2 14 0 25 5 35 14 -86 9 -140 -6z m44 -14 c9 -6 10
-11 2 -15 -6 -4 -9 -12 -5 -17 7 -12 -60 -5 -96 9 -23 10 -22 11 17 11 23 1
45 6 48 11 8 12 16 12 34 1z"/>
<path d="M2245 4420 c3 -5 8 -10 11 -10 2 0 4 5 4 10 0 6 -5 10 -11 10 -5 0
-7 -4 -4 -10z"/>
<path d="M3583 4391 c-3 -10 -22 -26 -44 -34 -38 -15 -49 -30 -30 -41 5 -3 7
-16 3 -28 -3 -14 -2 -19 7 -14 6 4 9 12 6 17 -4 5 1 9 9 9 18 0 30 -16 17 -24
-10 -7 -9 -52 2 -62 12 -12 28 7 17 21 -8 9 -6 14 6 19 23 9 25 8 22 -8 -2 -8
2 -15 7 -15 6 -1 11 4 11 9 1 6 2 12 3 15 0 2 13 0 27 -6 36 -13 42 -4 13 21
-16 14 -20 23 -12 26 7 3 9 12 6 21 -5 13 -3 14 17 3 15 -8 25 -9 33 -1 12 12
-27 30 -59 28 -15 -2 -20 6 -22 31 -4 36 -30 45 -39 13z m-36 -57 c-3 -3 -12
-4 -19 -1 -8 3 -5 6 6 6 11 1 17 -2 13 -5z"/>
<path d="M1850 4380 c0 -5 5 -10 11 -10 5 0 7 5 4 10 -3 6 -8 10 -11 10 -2 0
-4 -4 -4 -10z"/>
<path d="M1455 4310 c-3 -6 1 -7 9 -4 18 7 21 14 7 14 -6 0 -13 -4 -16 -10z"/>
<path d="M3470 4280 c0 -5 7 -10 15 -10 8 0 15 5 15 10 0 6 -7 10 -15 10 -8 0
-15 -4 -15 -10z"/>
<path d="M1385 4259 c-11 -17 1 -21 15 -4 8 9 8 15 2 15 -6 0 -14 -5 -17 -11z"/>
<path d="M1253 4198 c-18 -24 -24 -38 -16 -38 4 0 13 11 20 25 12 27 11 32 -4
13z"/>
<path d="M3939 4189 c-1 -5 -2 -15 -3 -21 -1 -7 -7 -12 -13 -11 -23 5 -33 -23
-17 -43 14 -18 15 -18 8 5 l-6 24 23 -22 c29 -26 46 -27 54 -1 4 11 10 18 14
15 11 -6 36 43 27 52 -11 11 -86 12 -87 2z"/>
<path d="M1215 4139 c-4 -6 -5 -12 -2 -15 2 -3 7 2 10 11 7 17 1 20 -8 4z"/>
<path d="M4130 4144 c0 -6 7 -19 16 -30 14 -18 14 -18 3 6 -14 31 -19 36 -19
24z"/>
<path d="M1255 4034 l-16 -25 25 16 c14 10 26 21 26 26 0 17 -18 9 -35 -17z"/>
<path d="M4365 4040 c3 -5 8 -10 11 -10 2 0 4 5 4 10 0 6 -5 10 -11 10 -5 0
-7 -4 -4 -10z"/>
<path d="M3610 4015 c0 -9 -9 -15 -22 -15 -13 0 -18 -4 -12 -8 6 -4 13 -15 17
-24 3 -10 13 -18 22 -18 8 0 15 -6 15 -12 0 -9 3 -8 9 2 6 8 8 17 5 21 -2 4 6
5 18 3 13 -2 18 -2 11 2 -7 3 -10 11 -7 19 3 7 -3 16 -15 20 -12 3 -21 11 -21
16 0 5 -4 9 -10 9 -5 0 -10 -7 -10 -15z"/>
<path d="M970 3951 c-6 -16 -10 -38 -7 -48 4 -14 5 -13 6 5 0 13 6 32 12 44 6
11 9 22 6 24 -2 3 -10 -9 -17 -25z"/>
<path d="M4360 3970 c0 -5 5 -10 10 -10 6 0 10 -7 10 -17 0 -9 3 -14 6 -10 8
8 -5 47 -17 47 -5 0 -9 -4 -9 -10z"/>
<path d="M1010 3955 c0 -5 5 -17 10 -25 5 -8 10 -10 10 -5 0 6 -5 17 -10 25
-5 8 -10 11 -10 5z"/>
<path d="M4331 3941 c-8 -5 -9 -11 -3 -15 5 -3 12 1 16 9 6 17 6 18 -13 6z"/>
<path d="M1410 3919 l-25 -10 28 -25 c15 -13 24 -24 20 -24 -12 -1 37 -40 50
-40 7 0 7 4 -1 12 -20 20 -13 27 22 21 43 -7 60 22 20 37 -14 6 -29 10 -34 10
-5 0 -7 7 -4 15 7 18 -36 20 -76 4z"/>
<path d="M3865 3920 c-3 -5 0 -10 7 -10 23 0 -15 -20 -39 -20 -25 0 -28 -7
-14 -29 6 -10 19 -12 40 -8 29 6 31 5 21 -13 -8 -16 -8 -20 3 -20 19 0 40 26
32 40 -3 5 0 10 8 10 8 0 21 8 31 18 15 18 15 19 -9 30 -32 15 -72 15 -80 2z"/>
<path d="M4392 3890 c0 -19 2 -27 5 -17 2 9 2 25 0 35 -3 9 -5 1 -5 -18z"/>
<path d="M1022 3885 c0 -16 2 -22 5 -12 2 9 2 23 0 30 -3 6 -5 -1 -5 -18z"/>
<path d="M1320 3828 c-23 -36 -22 -68 1 -68 10 0 19 -7 19 -15 0 -25 19 -17
26 10 6 25 7 25 25 9 15 -14 19 -14 19 -3 0 15 -57 89 -68 89 -4 0 -14 -10
-22 -22z"/>
<path d="M3976 3808 c-20 -23 -34 -44 -31 -47 3 -2 11 1 17 7 18 18 28 15 28
-7 0 -25 16 -36 24 -16 3 8 14 15 25 15 15 0 18 5 14 23 -7 31 -25 67 -34 67
-4 0 -24 -19 -43 -42z"/>
<path d="M1011 3814 c0 -11 3 -14 6 -6 3 7 2 16 -1 19 -3 4 -6 -2 -5 -13z"/>
<path d="M4385 3819 c-4 -6 -5 -12 -2 -15 2 -3 7 2 10 11 7 17 1 20 -8 4z"/>
<path d="M1285 3779 c-4 -6 -5 -12 -2 -15 2 -3 7 2 10 11 7 17 1 20 -8 4z"/>
<path d="M4340 3737 c0 -20 4 -37 10 -37 5 0 7 14 3 33 -8 45 -13 47 -13 4z"/>
<path d="M1006 3732 c-4 -13 -5 -26 -2 -29 10 -11 18 4 14 29 l-4 23 -8 -23z"/>
<path d="M1395 3690 c-9 -15 14 -40 37 -40 14 0 18 5 14 16 -3 9 -6 20 -6 25
0 12 -37 11 -45 -1z"/>
<path d="M3920 3690 c0 -5 -3 -15 -6 -24 -9 -24 33 -20 46 4 6 11 7 20 3 21
-4 0 -16 2 -25 4 -10 2 -18 -1 -18 -5z"/>
<path d="M855 3660 c-4 -6 -16 -8 -28 -5 -17 5 -18 4 -8 -4 11 -7 12 -13 4
-23 -8 -9 -7 -16 2 -25 7 -6 16 -9 19 -6 3 4 6 -2 6 -13 0 -15 2 -16 9 -4 6 8
7 18 5 22 -3 4 -1 8 4 8 6 0 12 -7 16 -15 3 -8 11 -15 18 -15 10 0 10 2 -1 9
-7 5 -11 13 -8 18 7 11 -14 63 -25 63 -4 0 -10 -5 -13 -10z"/>
<path d="M4468 3643 c-13 -23 -14 -30 -3 -40 11 -10 15 -10 18 0 3 7 6 5 6 -5
1 -9 6 -20 13 -24 8 -5 9 -2 5 10 -5 13 -3 17 5 13 7 -2 19 2 26 9 7 8 8 14 2
14 -14 0 -13 27 3 34 6 3 0 4 -15 1 -16 -3 -28 -1 -28 5 0 19 -16 10 -32 -17z"/>
<path d="M1517 3619 c-9 -6 -31 -8 -47 -5 -18 2 -29 0 -27 -6 1 -6 -13 -22
-32 -35 -27 -18 -30 -23 -14 -23 24 0 117 46 133 65 14 17 12 18 -13 4z"/>
<path d="M3833 3613 c21 -24 112 -66 130 -60 7 2 -3 12 -21 21 -19 10 -32 23
-29 30 4 10 -4 12 -30 9 -19 -2 -43 2 -52 9 -12 10 -12 7 2 -9z"/>
<path d="M4217 3479 c4 -13 8 -18 11 -10 2 7 -1 18 -6 23 -8 8 -9 4 -5 -13z"/>
<path d="M681 3436 c-6 -16 -10 -31 -7 -33 7 -8 28 37 23 50 -3 7 -10 -1 -16
-17z"/>
<path d="M540 3310 c0 -5 5 -10 11 -10 5 0 7 5 4 10 -3 6 -8 10 -11 10 -2 0
-4 -4 -4 -10z"/>
<path d="M4443 3292 c-29 -9 -53 -22 -53 -29 0 -7 -7 -13 -15 -13 -8 0 -15 5
-15 10 0 15 -46 12 -59 -4 -6 -7 -9 -21 -5 -29 5 -13 9 -14 24 -4 27 16 34 3
15 -26 -15 -23 -15 -26 0 -41 22 -21 54 -20 112 5 84 36 98 60 46 80 -40 15
-16 32 39 27 60 -6 68 3 22 25 -41 20 -44 20 -111 -1z"/>
<path d="M706 3271 c-4 -5 -3 -16 0 -24 7 -18 -12 -31 -49 -33 -34 -2 -44 -11
-30 -25 8 -8 17 -8 31 0 17 9 20 7 20 -14 0 -14 -7 -30 -14 -36 -22 -18 -16
-26 16 -21 18 3 30 0 30 -7 0 -6 5 -11 10 -11 6 0 10 6 10 13 0 9 10 12 30 9
32 -5 42 14 14 25 -13 5 -13 7 -2 14 16 11 29 11 26 2 -2 -5 2 -8 7 -8 6 0 9
7 8 15 -1 8 3 18 9 21 17 11 0 28 -42 40 -28 9 -40 18 -40 31 0 19 -24 25 -34
9z"/>
<path d="M830 3150 c0 -5 7 -10 15 -10 8 0 15 5 15 10 0 6 -7 10 -15 10 -8 0
-15 -4 -15 -10z"/>
<path d="M750 3095 c0 -8 7 -15 15 -15 8 0 15 7 15 15 0 8 -7 15 -15 15 -8 0
-15 -7 -15 -15z"/>
<path d="M2008 2965 c2 -56 7 -93 13 -90 5 4 9 24 9 45 0 36 2 39 33 43 l32 4
-34 1 c-33 2 -33 2 -29 47 2 35 0 45 -12 45 -13 0 -14 -16 -12 -95z"/>
<path d="M2086 3052 c6 -4 14 -14 17 -22 4 -10 6 -8 6 8 1 15 -5 22 -16 22
-11 0 -14 -3 -7 -8z"/>
<path d="M2145 2965 l0 -95 47 0 c26 0 49 3 51 8 3 4 -14 7 -36 7 l-42 0 4 88
c3 68 0 87 -10 87 -11 0 -14 -21 -14 -95z"/>
<path d="M2301 3036 c-27 -29 -37 -92 -19 -126 16 -30 55 -45 91 -36 56 14 78
123 34 164 -32 30 -52 28 -22 -3 49 -48 25 -155 -34 -155 -41 0 -56 24 -56 87
0 45 4 58 24 74 13 10 19 19 14 19 -5 0 -20 -11 -32 -24z"/>
<path d="M2475 2965 c0 -52 3 -95 8 -95 6 0 12 55 8 86 -1 6 3 31 8 57 7 40 6
47 -8 47 -14 0 -16 -14 -16 -95z"/>
<path d="M2543 3049 c20 -12 23 -49 5 -68 -11 -10 -10 -11 5 -5 38 14 29 84
-12 84 -14 -1 -14 -2 2 -11z"/>
<path d="M2640 3046 c8 -11 9 -38 4 -95 -5 -58 -3 -81 5 -81 7 0 11 31 11 95
0 81 -2 95 -16 95 -13 0 -14 -3 -4 -14z"/>
<path d="M2715 3037 c-20 -31 -12 -50 36 -81 21 -15 39 -32 39 -39 0 -33 -53
-49 -79 -24 -11 10 -13 9 -9 -3 6 -19 50 -25 78 -10 13 7 20 21 20 40 0 24 -8
35 -41 55 -30 20 -39 32 -37 48 4 29 47 36 66 10 13 -17 14 -17 10 2 -5 32
-62 33 -83 2z"/>
<path d="M2820 3050 c0 -5 7 -7 15 -4 8 4 15 8 15 10 0 2 -7 4 -15 4 -8 0 -15
-4 -15 -10z"/>
<path d="M2879 2963 c3 -82 5 -91 12 -58 4 22 8 63 8 92 1 51 2 52 34 56 26 3
24 4 -13 5 l-45 2 4 -97z"/>
<path d="M3001 2969 c-23 -50 -40 -94 -37 -96 3 -3 14 17 26 43 12 27 30 67
40 89 l18 40 7 -40 c15 -86 36 -135 57 -135 6 0 5 7 -3 16 -7 8 -20 50 -29 92
-9 41 -21 77 -27 79 -5 2 -29 -38 -52 -88z"/>
<path d="M2510 2964 c0 -16 63 -94 76 -94 11 0 4 13 -20 42 -20 23 -36 45 -36
50 0 4 -4 8 -10 8 -5 0 -10 -3 -10 -6z"/>
<path d="M940 2813 c-8 -2 -25 -18 -38 -36 l-22 -32 40 -3 c22 -2 40 -7 40
-12 0 -13 29 -20 52 -11 l23 8 -23 7 c-26 9 -29 26 -4 26 9 0 25 7 34 14 15
11 16 15 3 32 -13 18 -15 18 -43 2 -37 -22 -43 -22 -36 -3 6 15 2 16 -26 8z"/>
<path d="M571 2775 c-25 -11 -37 -12 -47 -4 -14 11 -34 4 -34 -12 0 -6 7 -17
15 -25 21 -21 19 -33 -7 -44 -13 -5 -19 -9 -14 -9 5 -1 3 -8 -4 -16 -7 -9 -10
-19 -6 -23 4 -4 16 4 26 18 11 14 20 19 20 12 0 -7 5 -10 10 -7 6 4 10 -8 10
-29 0 -20 5 -36 10 -36 6 0 10 6 10 13 0 24 22 38 38 24 13 -10 14 -8 8 9 -4
15 -2 24 9 28 9 3 15 0 15 -9 0 -8 7 -15 15 -15 8 0 15 7 15 15 0 8 -4 15 -10
15 -5 0 -10 7 -10 16 0 11 -6 14 -20 9 -19 -6 -19 -5 -5 36 8 23 15 43 15 45
0 8 -26 3 -59 -11z m39 -9 c0 -3 -4 -8 -10 -11 -5 -3 -10 -1 -10 4 0 6 5 11
10 11 6 0 10 -2 10 -4z"/>
<path d="M666 2761 c-4 -7 -5 -15 -2 -18 9 -9 19 4 14 18 -4 11 -6 11 -12 0z"/>
<path d="M630 2740 c0 -5 5 -10 10 -10 6 0 10 5 10 10 0 6 -4 10 -10 10 -5 0
-10 -4 -10 -10z"/>
<path d="M871 2617 c2 -25 6 -44 10 -41 4 2 9 -2 12 -8 3 -10 7 -10 19 0 11 9
18 10 23 2 14 -22 27 -9 22 20 -6 27 -4 30 21 30 l27 1 -26 14 c-15 8 -45 17
-68 21 l-42 7 2 -46z"/>
<path d="M1043 2583 c4 -3 -1 -11 -10 -18 -19 -14 -10 -35 16 -35 30 0 43 21
24 42 -9 10 -21 18 -26 18 -6 0 -7 -3 -4 -7z"/>
<path d="M470 2543 c0 -10 4 -24 8 -31 6 -8 9 -2 9 18 0 16 -4 30 -9 30 -4 0
-8 -8 -8 -17z"/>
<path d="M505 2550 c3 -5 11 -10 16 -10 6 0 7 5 4 10 -3 6 -11 10 -16 10 -6 0
-7 -4 -4 -10z"/>
<path d="M4211 2511 c-10 -7 -11 -13 -2 -30 10 -18 15 -20 34 -10 12 7 23 13
25 14 4 4 -28 35 -36 35 -4 0 -13 -4 -21 -9z"/>
<path d="M4637 2504 c-3 -4 4 -15 16 -26 l22 -19 -24 7 c-20 5 -23 3 -18 -10
4 -10 3 -15 -3 -11 -6 3 -10 2 -10 -4 0 -5 6 -12 13 -15 8 -3 2 -14 -18 -31
-26 -23 -27 -26 -7 -20 23 7 32 -9 10 -18 -10 -4 -10 -6 -1 -6 6 -1 15 4 18 9
4 7 13 6 26 -1 29 -15 49 -4 49 28 0 17 8 33 20 40 16 11 18 17 9 43 -12 34
-21 37 -43 14 -9 -9 -16 -11 -16 -4 0 6 -4 9 -9 5 -6 -3 -14 2 -18 10 -5 9
-12 13 -16 9z"/>
<path d="M490 2484 c0 -6 7 -19 15 -30 8 -10 14 -14 14 -9 0 6 -6 19 -14 29
-8 11 -15 15 -15 10z"/>
<path d="M2076 2418 c-3 -18 -7 -92 -10 -164 -6 -154 0 -171 52 -153 37 13 42
26 10 25 -22 -1 -23 3 -23 69 0 39 4 112 8 163 7 88 7 92 -12 92 -15 0 -21 -8
-25 -32z"/>
<path d="M3119 2418 c0 -18 -2 -42 -4 -52 -10 -51 -9 -256 1 -266 7 -7 20 -7
42 1 34 12 45 30 12 22 -29 -8 -32 24 -20 171 13 164 13 156 -10 156 -16 0
-20 -7 -21 -32z"/>
<path d="M4345 2396 c-8 -19 -20 -36 -27 -39 -8 -3 -2 -10 15 -17 15 -7 29
-11 32 -9 11 12 35 80 26 74 -6 -3 -11 1 -11 9 0 28 -21 17 -35 -18z"/>
<path d="M4590 2410 c0 -6 7 -10 15 -10 8 0 15 2 15 4 0 2 -7 6 -15 10 -8 3
-15 1 -15 -4z"/>
<path d="M2890 2403 c-39 -12 -60 -28 -70 -54 -19 -46 -5 -75 54 -113 63 -40
70 -49 62 -81 -14 -55 -92 -58 -103 -5 -7 39 -20 38 -28 -1 -8 -37 1 -48 47
-55 72 -12 140 48 124 110 -3 14 -23 34 -43 47 -57 34 -83 60 -83 84 0 28 18
45 50 45 30 0 50 -17 50 -42 0 -10 5 -18 10 -18 12 0 14 67 3 73 -16 9 -59 15
-73 10z"/>
<path d="M4260 2401 c0 -13 29 -35 37 -28 7 8 -15 37 -28 37 -5 0 -9 -4 -9 -9z"/>
<path d="M540 2396 c0 -2 7 -9 15 -16 9 -7 15 -8 15 -2 0 5 -7 12 -15 16 -8 3
-15 4 -15 2z"/>
<path d="M1605 2390 c-19 -8 -19 -9 3 -9 22 -1 22 -3 22 -145 0 -139 1 -144
20 -139 18 5 20 14 20 73 l0 68 31 6 c17 3 47 6 65 6 l34 0 0 -61 c0 -81 12
-102 53 -94 18 4 36 11 41 15 5 5 19 2 32 -7 25 -16 67 -12 91 9 20 16 15 30
-6 18 -30 -16 -59 -12 -71 9 -19 36 -12 48 35 60 67 17 85 73 29 87 -62 16
-117 -43 -116 -123 1 -36 -2 -43 -18 -43 -28 0 -34 35 -26 166 7 110 7 114
-12 114 -18 0 -21 -9 -27 -64 l-7 -63 -51 -7 c-30 -3 -56 -1 -61 4 -6 6 -11
36 -11 68 0 54 -2 57 -25 59 -14 1 -34 -2 -45 -7z m389 -135 c7 -18 -19 -45
-45 -45 -23 0 -25 23 -3 44 19 20 40 20 48 1z"/>
<path d="M634 2368 c10 -15 15 -32 11 -38 -3 -6 3 -10 15 -10 17 0 19 3 11 18
-5 9 -19 26 -32 37 l-22 20 17 -27z"/>
<path d="M3021 2381 c-19 -12 -6 -43 16 -39 10 2 18 12 18 22 0 22 -14 29 -34
17z"/>
<path d="M4208 2308 c17 -17 16 -44 -1 -30 -18 16 -57 3 -57 -18 0 -22 18 -30
56 -22 26 5 28 4 15 -11 -12 -15 -10 -17 13 -17 35 0 88 28 83 43 -2 7 -19 17
-38 24 -19 7 -30 12 -25 12 18 2 -17 31 -37 31 -16 0 -18 -3 -9 -12z"/>
<path d="M2201 2276 c-84 -47 -57 -200 32 -182 18 4 41 16 52 28 20 21 20 21
0 13 -47 -18 -68 -18 -82 0 -24 34 -16 51 35 66 31 9 50 22 57 37 5 12 15 22
22 22 9 0 13 -22 13 -80 0 -73 2 -80 20 -80 15 0 20 7 20 25 0 50 51 142 71
129 5 -3 9 -38 9 -79 0 -41 4 -76 9 -79 5 -4 22 -1 37 4 20 8 36 8 56 -1 25
-10 33 -9 59 10 16 12 29 17 29 12 0 -16 39 -33 60 -26 25 8 26 27 3 23 -16
-3 -18 7 -21 74 -3 88 -17 105 -77 94 -55 -11 -86 -66 -36 -66 12 0 17 7 17
23 -1 17 5 22 24 22 21 0 26 -5 28 -31 3 -29 1 -32 -36 -37 -38 -7 -63 -26
-75 -59 -4 -10 -13 -18 -22 -18 -12 0 -15 14 -15 74 0 53 -4 77 -15 86 -21 18
-62 4 -82 -27 l-18 -27 -5 29 c-4 23 -11 29 -25 28 -35 -4 -59 -4 -90 2 -17 3
-40 -1 -54 -9z m53 -21 c7 -18 -19 -45 -45 -45 -23 0 -25 17 -2 42 20 22 39
23 47 3z m376 -83 c0 -23 -35 -56 -49 -47 -18 10 -13 33 11 49 29 21 38 20 38
-2z"/>
<path d="M3015 2280 c-11 -18 -11 -168 1 -180 7 -7 20 -7 42 1 34 12 45 30 12
22 -24 -6 -31 19 -28 101 3 56 -10 83 -27 56z"/>
<path d="M3188 2283 c-10 -2 -18 -9 -18 -14 0 -6 4 -8 9 -5 16 10 29 -18 42
-86 17 -92 23 -100 53 -63 40 49 78 123 74 148 -2 13 -11 23 -24 25 -18 3 -20
-1 -16 -28 4 -31 -25 -116 -37 -105 -3 3 -12 34 -21 68 -15 62 -24 71 -62 60z"/>
<path d="M3403 2275 c-38 -16 -47 -55 -13 -55 15 0 20 7 20 25 0 29 29 35 50
10 22 -26 7 -47 -42 -62 -37 -10 -49 -19 -54 -38 -13 -53 21 -79 69 -51 27 15
31 15 47 1 21 -19 31 -19 56 1 15 12 16 15 2 10 -29 -9 -41 19 -34 79 5 47 3
58 -14 75 -23 23 -43 25 -87 5z m57 -98 c0 -20 -30 -57 -46 -57 -24 0 -17 49
9 60 31 12 37 12 37 -3z"/>
<path d="M485 2251 c-3 -5 -1 -12 5 -16 5 -3 10 1 10 9 0 18 -6 21 -15 7z"/>
<path d="M595 2211 c-3 -5 -1 -12 5 -16 5 -3 10 1 10 9 0 18 -6 21 -15 7z"/>
<path d="M4561 2174 c0 -11 3 -14 6 -6 3 7 2 16 -1 19 -3 4 -6 -2 -5 -13z"/>
<path d="M4470 2128 c0 -19 2 -20 10 -8 13 19 13 30 0 30 -5 0 -10 -10 -10
-22z"/>
<path d="M4566 2085 c-4 -22 -11 -49 -16 -60 -17 -38 -22 -68 -12 -61 13 8 46
130 39 147 -2 8 -8 -4 -11 -26z"/>
<path d="M650 2078 c0 -9 5 -20 10 -23 13 -8 13 5 0 25 -8 13 -10 13 -10 -2z"/>
<path d="M576 2007 c3 -10 9 -15 12 -12 3 3 0 11 -7 18 -10 9 -11 8 -5 -6z"/>
<path d="M4279 1963 c-13 -16 -12 -17 4 -4 9 7 17 15 17 17 0 8 -8 3 -21 -13z"/>
<path d="M960 1709 c0 -11 5 -17 10 -14 6 3 10 13 10 21 0 8 -4 14 -10 14 -5
0 -10 -9 -10 -21z"/>
<path d="M813 1705 c-9 -9 -9 -15 0 -24 16 -16 32 -14 18 3 -10 12 -8 15 11
18 22 3 22 4 3 9 -11 3 -26 0 -32 -6z"/>
<path d="M910 1700 c-13 -9 -13 -11 0 -20 13 -8 13 -10 -1 -10 -9 0 -20 7 -23
16 -3 8 -11 12 -16 9 -8 -5 -7 -11 1 -21 6 -8 8 -15 3 -15 -24 -5 -50 -3 -54
2 -3 4 -16 10 -29 14 -21 6 -23 5 -19 -13 3 -12 1 -23 -6 -26 -11 -5 20 -30
39 -31 6 0 10 -4 10 -10 0 -5 4 -16 9 -24 6 -10 5 -12 -2 -7 -13 8 -16 -3 -4
-20 13 -19 41 -24 67 -12 14 6 25 15 25 20 0 4 8 8 18 8 16 -1 16 -1 -1 -11
-29 -17 -9 -28 23 -13 16 9 35 12 41 8 8 -5 10 -1 7 14 -4 15 -2 19 8 15 8 -3
18 5 24 22 13 35 15 33 -25 41 -32 6 -50 24 -24 24 5 0 8 4 4 10 -3 5 -12 7
-20 4 -8 -4 -12 -10 -9 -15 3 -5 1 -9 -5 -9 -16 0 -22 18 -9 23 10 4 9 8 -2
20 -11 12 -19 13 -30 7z m-100 -59 c0 -6 -4 -13 -10 -16 -5 -3 -10 1 -10 9 0
9 5 16 10 16 6 0 10 -4 10 -9z m42 -93 c-7 -7 -12 -8 -12 -2 0 14 12 26 19 19
2 -3 -1 -11 -7 -17z"/>
<path d="M4341 1654 c0 -11 3 -14 6 -6 3 7 2 16 -1 19 -3 4 -6 -2 -5 -13z"/>
<path d="M4675 1643 c-24 -13 -76 -52 -138 -104 -5 -4 -3 -16 4 -26 11 -18 15
-19 38 -7 35 19 52 18 44 -3 -4 -11 -3 -14 6 -9 7 5 10 14 7 22 -3 7 -1 16 4
19 6 4 10 19 10 36 0 16 5 29 10 29 6 0 10 7 10 15 0 8 3 14 8 13 12 -2 42 14
42 23 0 13 -10 11 -45 -8z"/>
<path d="M1050 1640 c0 -5 5 -10 11 -10 5 0 7 5 4 10 -3 6 -8 10 -11 10 -2 0
-4 -4 -4 -10z"/>
<path d="M4289 1632 c12 -23 41 -48 41 -35 0 5 -7 19 -16 31 -19 27 -39 30
-25 4z"/>
<path d="M760 1600 c0 -5 5 -10 11 -10 5 0 7 5 4 10 -3 6 -8 10 -11 10 -2 0
-4 -4 -4 -10z"/>
<path d="M4680 1595 c-11 -13 -10 -14 4 -9 9 3 16 10 16 15 0 13 -6 11 -20 -6z"/>
<path d="M4466 1544 c-3 -9 -4 -20 -1 -24 3 -5 1 -11 -5 -15 -19 -12 -10 -26
13 -19 25 8 37 22 36 44 0 10 -2 11 -6 3 -5 -14 -33 -18 -33 -5 0 4 5 13 12
20 8 8 8 12 1 12 -6 0 -14 -7 -17 -16z"/>
<path d="M1078 1368 c-2 -25 -8 -33 -23 -34 -47 -2 -55 -5 -55 -15 0 -7 10 -9
26 -5 22 6 25 4 20 -9 -3 -9 -2 -13 4 -10 18 11 10 -14 -11 -34 -13 -12 -17
-21 -10 -26 6 -3 11 -2 11 3 0 5 10 8 23 7 12 -2 21 -8 20 -14 -2 -6 2 -11 7
-11 6 0 10 7 10 15 0 11 8 13 30 9 23 -5 30 -3 30 10 0 9 -8 16 -17 16 -16 1
-16 2 1 12 15 8 21 8 24 0 2 -7 8 -12 14 -12 6 0 8 7 5 15 -4 8 -2 17 3 20 21
13 8 32 -30 45 -27 9 -40 19 -40 32 0 11 -7 18 -19 18 -15 0 -21 -8 -23 -32z"/>
<path d="M4350 1333 c0 -5 5 -15 10 -23 8 -12 10 -11 10 8 0 12 -4 22 -10 22
-5 0 -10 -3 -10 -7z"/>
<path d="M1205 1270 c3 -5 10 -10 16 -10 5 0 9 5 9 10 0 6 -7 10 -16 10 -8 0
-12 -4 -9 -10z"/>
<path d="M4245 1261 c-3 -12 -13 -21 -21 -21 -18 0 -64 -29 -64 -40 0 -4 16
-16 37 -25 30 -15 34 -19 19 -27 -9 -5 -13 -14 -9 -21 4 -7 8 -18 8 -24 0 -7
5 -12 10 -10 6 1 9 10 8 20 -2 9 4 17 12 17 8 0 15 -7 15 -15 0 -8 5 -15 10
-15 6 0 10 7 10 15 0 15 24 16 46 2 21 -12 24 6 4 20 -11 8 -20 25 -20 38 0
22 3 24 30 19 19 -4 30 -2 30 5 0 10 -7 12 -52 15 -22 1 -30 11 -32 38 -1 29
-32 36 -41 9z m-35 -51 c0 -5 -4 -10 -10 -10 -5 0 -10 5 -10 10 0 6 5 10 10
10 6 0 10 -4 10 -10z"/>
<path d="M1125 1221 c-3 -5 -1 -12 5 -16 12 -7 30 2 30 16 0 12 -27 12 -35 0z"/>
<path d="M2036 1184 c-3 -9 -6 -24 -6 -35 0 -10 -4 -19 -10 -19 -5 0 -10 5
-10 10 0 6 -4 10 -10 10 -13 0 -13 -80 0 -100 9 -13 14 -11 31 10 12 14 27 24
34 22 13 -2 45 34 45 51 0 4 -9 3 -19 -3 -13 -7 -22 -7 -26 0 -3 5 -2 10 3 10
5 0 12 9 15 19 9 34 -35 57 -47 25z"/>
<path d="M4170 1160 c0 -5 5 -10 10 -10 6 0 10 5 10 10 0 6 -4 10 -10 10 -5 0
-10 -4 -10 -10z"/>
<path d="M1746 1147 c3 -10 9 -15 12 -12 3 3 0 11 -7 18 -10 9 -11 8 -5 -6z"/>
<path d="M4135 1150 c3 -5 10 -10 16 -10 5 0 9 5 9 10 0 6 -7 10 -16 10 -8 0
-12 -4 -9 -10z"/>
<path d="M1110 1099 c0 -5 9 -9 20 -9 11 0 20 2 20 4 0 2 -9 6 -20 9 -11 3
-20 1 -20 -4z"/>
<path d="M3403 1057 c-57 -58 -73 -96 -22 -53 17 14 35 24 40 21 4 -3 11 7 15
22 4 15 14 36 22 46 34 39 -5 13 -55 -36z"/>
<path d="M2513 1083 c-13 -8 -23 -21 -23 -27 0 -6 5 -4 11 4 8 11 12 12 15 3
4 -8 16 -10 35 -6 37 7 38 -9 2 -36 -23 -16 -26 -23 -17 -38 20 -34 56 -43
128 -35 37 5 74 15 82 24 13 13 12 17 -10 39 -13 13 -22 27 -20 31 6 10 64 -2
91 -19 34 -23 37 2 2 31 -34 29 -31 28 -116 31 -35 2 -63 -1 -63 -6 0 -15 -27
-10 -34 6 -7 19 -54 18 -83 -2z"/>
<path d="M2107 1013 l-49 -36 29 -23 c36 -30 73 -32 73 -4 0 11 7 20 15 20 22
0 18 21 -5 27 -25 7 -26 22 -2 39 14 11 14 13 2 13 -8 0 -37 -16 -63 -36z"/>
<path d="M3674 1026 c-3 -9 -4 -23 0 -31 8 -21 -21 -19 -33 3 -9 15 -10 13
-11 -9 0 -26 21 -54 32 -43 3 3 9 -11 12 -31 6 -32 9 -35 23 -23 14 12 43 68
43 84 0 3 -7 3 -16 0 -12 -5 -15 1 -12 26 2 24 -1 33 -15 36 -9 2 -20 -4 -23
-12z"/>
<path d="M3457 996 c-3 -8 1 -22 8 -33 13 -17 14 -17 29 2 14 18 13 21 -1 33
-22 16 -30 15 -36 -2z"/>
<path d="M3556 926 c5 -21 3 -25 -9 -20 -24 9 -41 -5 -26 -22 6 -7 9 -21 5
-29 -5 -15 14 -21 59 -16 35 3 37 18 11 59 -32 51 -49 63 -40 28z"/>
<path d="M1832 929 c2 -7 10 -15 17 -17 8 -3 12 1 9 9 -2 7 -10 15 -17 17 -8
3 -12 -1 -9 -9z"/>
<path d="M1675 910 c3 -5 16 -15 28 -21 22 -12 22 -12 3 10 -19 21 -43 30 -31
11z"/>
<path d="M1674 829 c-8 -14 12 -52 37 -67 16 -10 19 -9 19 7 0 52 -36 91 -56
60z"/>
<path d="M1895 831 c-3 -5 -2 -12 3 -15 5 -3 9 1 9 9 0 17 -3 19 -12 6z"/>
<path d="M1620 776 c0 -8 7 -17 16 -20 8 -3 13 -10 10 -15 -8 -13 18 -21 35
-11 11 7 9 14 -11 34 -26 28 -50 34 -50 12z"/>
<path d="M3188 763 c6 -2 18 -2 25 0 6 3 1 5 -13 5 -14 0 -19 -2 -12 -5z"/>
<path d="M3770 730 c0 -5 4 -10 9 -10 6 0 13 5 16 10 3 6 -1 10 -9 10 -9 0
-16 -4 -16 -10z"/>
<path d="M1776 658 c9 -16 24 -28 33 -27 13 0 13 2 1 6 -8 4 -23 16 -33 27
-18 21 -18 20 -1 -6z"/>
<path d="M3895 664 l-30 -14 30 6 c17 3 34 10 40 15 14 13 -5 11 -40 -7z"/>
<path d="M1639 661 c21 -14 -17 -62 -44 -55 -12 3 -15 2 -9 -3 6 -4 14 -18 18
-30 11 -35 47 -29 73 12 15 24 18 35 9 35 -7 0 -18 11 -24 25 -6 14 -17 25
-24 25 -10 0 -9 -3 1 -9z"/>
<path d="M3110 656 c0 -9 5 -16 10 -16 6 0 10 4 10 9 0 6 -4 13 -10 16 -5 3
-10 -1 -10 -9z"/>
<path d="M1390 625 c-9 -11 -9 -18 3 -29 12 -13 20 -13 58 -1 24 8 36 14 26
14 -10 1 -31 8 -46 16 -25 13 -31 13 -41 0z"/>
<path d="M2150 630 c0 -5 5 -10 11 -10 5 0 7 5 4 10 -3 6 -8 10 -11 10 -2 0
-4 -4 -4 -10z"/>
<path d="M3102 621 c2 -7 7 -12 11 -12 12 1 9 15 -3 20 -7 2 -11 -2 -8 -8z"/>
<path d="M3125 599 c-26 -25 -31 -27 -35 -12 -7 24 -60 30 -60 7 0 -11 6 -15
19 -11 15 3 19 0 18 -14 -1 -13 -7 -17 -19 -13 -10 3 -18 1 -18 -5 0 -6 5 -11
10 -11 15 0 12 -26 -5 -43 -21 -21 -8 -27 23 -11 23 12 29 12 42 -2 11 -13 12
-18 3 -21 -13 -5 -19 -33 -7 -33 12 0 35 30 29 39 -6 10 11 24 32 27 7 1 15
-2 19 -7 8 -14 21 -11 28 7 4 9 0 21 -9 28 -8 6 -15 28 -17 49 -3 53 -17 60
-53 26z m32 -21 c-3 -8 -6 -5 -6 6 -1 11 2 17 5 13 3 -3 4 -12 1 -19z"/>
<path d="M1500 600 c0 -5 16 -10 35 -10 19 0 35 4 35 8 0 4 -16 9 -35 10 -19
2 -35 -2 -35 -8z"/>
<path d="M2125 600 c4 -6 -1 -7 -11 -3 -13 5 -16 3 -11 -10 5 -12 0 -18 -18
-23 -13 -3 -29 -3 -34 1 -7 4 -9 -5 -7 -25 3 -30 16 -55 16 -32 0 7 7 12 15
12 8 0 15 -7 15 -15 0 -27 30 -29 57 -4 14 13 23 19 20 13 -4 -7 0 -15 9 -18
23 -9 31 -7 14 4 -13 8 -13 11 2 22 9 7 22 25 27 40 10 26 9 27 -19 24 -16 -2
-27 1 -24 5 3 5 1 9 -5 9 -5 0 -12 -6 -14 -12 -3 -8 -6 -6 -6 5 -1 9 -8 17
-17 17 -8 0 -12 -4 -9 -10z"/>
<path d="M3380 579 c0 -5 9 -9 20 -9 11 0 20 2 20 4 0 2 -9 6 -20 9 -11 3 -20
1 -20 -4z"/>
<path d="M2068 573 c7 -3 16 -2 19 1 4 3 -2 6 -13 5 -11 0 -14 -3 -6 -6z"/>
<path d="M1557 542 c-28 -29 -36 -48 -14 -36 7 4 9 3 4 -2 -5 -5 -13 -9 -19
-9 -5 0 -22 -23 -37 -52 -16 -29 -34 -59 -41 -68 -21 -25 -7 -26 36 -4 47 25
109 82 94 87 -15 5 8 32 29 33 10 0 8 4 -8 10 -20 8 -22 14 -17 39 3 17 4 30
3 30 -2 0 -15 -13 -30 -28z m-12 -82 c-5 -16 -3 -19 12 -14 16 5 15 4 -2 -10
-11 -8 -27 -21 -35 -28 -8 -7 -26 -19 -40 -26 l-25 -13 28 28 c15 16 27 36 27
46 0 9 8 21 18 26 23 14 24 14 17 -9z"/>
<path d="M2410 550 c8 -16 8 -18 -4 -14 -8 3 -17 1 -21 -5 -3 -6 -1 -11 4 -11
6 0 10 -3 10 -7 -1 -5 -1 -17 0 -27 1 -16 4 -17 13 -8 17 17 26 15 31 -5 4
-14 5 -13 6 4 0 12 9 27 19 32 16 9 15 12 -8 28 -13 10 -32 21 -42 25 -16 6
-17 5 -8 -12z"/>
<path d="M3477 559 c7 -7 15 -10 18 -7 3 3 -2 9 -12 12 -14 6 -15 5 -6 -5z"/>
<path d="M3528 543 c6 -2 18 -2 25 0 6 3 1 5 -13 5 -14 0 -19 -2 -12 -5z"/>
<path d="M3590 526 c7 -7 13 -7 20 0 6 6 3 10 -10 10 -13 0 -16 -4 -10 -10z"/>
<path d="M2155 481 c-3 -5 -2 -12 3 -15 5 -3 9 1 9 9 0 17 -3 19 -12 6z"/>
<path d="M3525 480 c11 -5 27 -9 35 -9 9 0 8 4 -5 9 -11 5 -27 9 -35 9 -9 0
-8 -4 5 -9z"/>
<path d="M3600 480 c-24 -8 -23 -8 8 -9 17 -1 32 4 32 9 0 11 -5 11 -40 0z"/>
<path d="M1287 473 c-14 -13 -6 -20 18 -15 14 2 25 8 25 13 0 10 -34 12 -43 2z"/>
<path d="M1396 458 c-9 -12 -14 -24 -12 -26 9 -8 46 19 46 33 0 22 -17 18 -34
-7z"/>
<path d="M1700 455 c-11 -13 -10 -14 3 -10 8 4 18 2 22 -4 8 -14 45 -14 45 -1
0 10 -32 30 -48 30 -5 0 -15 -7 -22 -15z"/>
<path d="M3695 460 c-3 -5 -1 -10 4 -10 6 0 11 5 11 10 0 6 -2 10 -4 10 -3 0
-8 -4 -11 -10z"/>
<path d="M3177 439 c7 -7 15 -10 18 -7 3 3 -2 9 -12 12 -14 6 -15 5 -6 -5z"/>
<path d="M2270 315 c-11 -13 -10 -18 6 -30 25 -19 35 -19 28 0 -4 8 -1 15 6
15 7 0 6 5 -4 15 -18 19 -21 19 -36 0z"/>
<path d="M2340 280 c0 -5 7 -10 16 -10 8 0 12 5 9 10 -3 6 -10 10 -16 10 -5 0
-9 -4 -9 -10z"/>
<path d="M1761 260 c-1 -8 -4 -26 -7 -40 -5 -19 -4 -22 5 -14 7 6 11 24 8 40
-2 16 -5 22 -6 14z"/>
<path d="M2230 245 c0 -27 26 -62 37 -51 15 14 8 43 -14 59 -23 18 -23 17 -23
-8z"/>
</g>
</svg>
